<mxfile host="Electron" modified="2024-03-11T00:43:48.408Z" agent="Mozilla/5.0 (Macintosh; Intel Mac OS X 10_15_7) AppleWebKit/537.36 (KHTML, like Gecko) draw.io/22.1.18 Chrome/120.0.6099.199 Electron/28.1.2 Safari/537.36" etag="3xcD-qmUG2cUtkSCdOrp" version="22.1.18" type="device">
  <diagram id="C5RBs43oDa-KdzZeNtuy" name="Page-1">
    <mxGraphModel dx="2390" dy="2982" grid="1" gridSize="10" guides="1" tooltips="1" connect="1" arrows="1" fold="1" page="1" pageScale="1" pageWidth="900" pageHeight="1600" math="0" shadow="0">
      <root>
        <mxCell id="WIyWlLk6GJQsqaUBKTNV-0" />
        <mxCell id="WIyWlLk6GJQsqaUBKTNV-1" parent="WIyWlLk6GJQsqaUBKTNV-0" />
        <mxCell id="0oKWe1tTrNoSyfwkLrH9-19" value="" style="rounded=1;whiteSpace=wrap;html=1;fillColor=#b0e3e6;strokeColor=#0e8088;opacity=20;" vertex="1" parent="WIyWlLk6GJQsqaUBKTNV-1">
          <mxGeometry x="540" y="720" width="300" height="550" as="geometry" />
        </mxCell>
        <mxCell id="0oKWe1tTrNoSyfwkLrH9-17" value="" style="rounded=1;whiteSpace=wrap;html=1;fillColor=#b0e3e6;strokeColor=#0e8088;opacity=20;" vertex="1" parent="WIyWlLk6GJQsqaUBKTNV-1">
          <mxGeometry x="170" y="720" width="300" height="550" as="geometry" />
        </mxCell>
        <mxCell id="0oKWe1tTrNoSyfwkLrH9-1" value="&lt;font style=&quot;font-size: 30px;&quot;&gt;&lt;i&gt;&lt;b&gt;Data Input&lt;/b&gt;&lt;/i&gt;&lt;/font&gt;" style="text;html=1;strokeColor=none;fillColor=none;align=center;verticalAlign=middle;whiteSpace=wrap;rounded=0;strokeWidth=10;" vertex="1" parent="WIyWlLk6GJQsqaUBKTNV-1">
          <mxGeometry width="150" height="30" as="geometry" />
        </mxCell>
        <mxCell id="0oKWe1tTrNoSyfwkLrH9-2" value="&lt;font style=&quot;font-size: 30px;&quot;&gt;&lt;i&gt;&lt;b&gt;Data Output&lt;/b&gt;&lt;/i&gt;&lt;/font&gt;" style="text;html=1;strokeColor=none;fillColor=none;align=center;verticalAlign=middle;whiteSpace=wrap;rounded=0;strokeWidth=10;" vertex="1" parent="WIyWlLk6GJQsqaUBKTNV-1">
          <mxGeometry y="680" width="190" height="30" as="geometry" />
        </mxCell>
        <mxCell id="0oKWe1tTrNoSyfwkLrH9-3" value="&lt;font style=&quot;font-size: 30px;&quot;&gt;&lt;i&gt;&lt;b&gt;Code&lt;/b&gt;&lt;/i&gt;&lt;/font&gt;" style="text;html=1;strokeColor=none;fillColor=none;align=left;verticalAlign=middle;whiteSpace=wrap;rounded=0;strokeWidth=10;" vertex="1" parent="WIyWlLk6GJQsqaUBKTNV-1">
          <mxGeometry y="340" width="150" height="30" as="geometry" />
        </mxCell>
        <mxCell id="0oKWe1tTrNoSyfwkLrH9-4" value="&lt;font style=&quot;font-size: 30px;&quot;&gt;data_raw&lt;/font&gt;" style="rounded=1;whiteSpace=wrap;html=1;fillColor=#e1d5e7;strokeColor=#9673a6;" vertex="1" parent="WIyWlLk6GJQsqaUBKTNV-1">
          <mxGeometry x="240" y="30" width="140" height="60" as="geometry" />
        </mxCell>
        <mxCell id="0oKWe1tTrNoSyfwkLrH9-5" value="&lt;font style=&quot;font-size: 30px;&quot;&gt;data_man&lt;/font&gt;" style="rounded=1;whiteSpace=wrap;html=1;fillColor=#e1d5e7;strokeColor=#9673a6;" vertex="1" parent="WIyWlLk6GJQsqaUBKTNV-1">
          <mxGeometry x="630" y="30" width="140" height="60" as="geometry" />
        </mxCell>
        <mxCell id="0oKWe1tTrNoSyfwkLrH9-6" value="&lt;font style=&quot;font-size: 30px;&quot;&gt;data_clean&lt;/font&gt;" style="rounded=1;whiteSpace=wrap;html=1;fontStyle=3" vertex="1" parent="WIyWlLk6GJQsqaUBKTNV-1">
          <mxGeometry x="170" y="1210" width="170" height="60" as="geometry" />
        </mxCell>
        <mxCell id="0oKWe1tTrNoSyfwkLrH9-7" value="&lt;span style=&quot;font-size: 30px;&quot;&gt;data_task&lt;/span&gt;" style="rounded=1;whiteSpace=wrap;html=1;fontStyle=3" vertex="1" parent="WIyWlLk6GJQsqaUBKTNV-1">
          <mxGeometry x="540" y="1210" width="150" height="60" as="geometry" />
        </mxCell>
        <mxCell id="0oKWe1tTrNoSyfwkLrH9-8" value="&lt;font style=&quot;font-size: 22px;&quot;&gt;AR6_*.csv&lt;/font&gt;" style="text;html=1;align=center;verticalAlign=middle;resizable=0;points=[];autosize=1;strokeColor=none;fillColor=none;" vertex="1" parent="WIyWlLk6GJQsqaUBKTNV-1">
          <mxGeometry x="240" y="90" width="130" height="40" as="geometry" />
        </mxCell>
        <mxCell id="0oKWe1tTrNoSyfwkLrH9-9" value="&lt;font style=&quot;font-size: 22px;&quot;&gt;category*.csv/xlsx&lt;/font&gt;" style="text;html=1;align=center;verticalAlign=middle;resizable=0;points=[];autosize=1;strokeColor=none;fillColor=none;" vertex="1" parent="WIyWlLk6GJQsqaUBKTNV-1">
          <mxGeometry x="205" y="120" width="200" height="40" as="geometry" />
        </mxCell>
        <mxCell id="0oKWe1tTrNoSyfwkLrH9-10" value="&lt;font style=&quot;font-size: 22px;&quot;&gt;r5.parquet&lt;/font&gt;" style="text;html=1;align=center;verticalAlign=middle;resizable=0;points=[];autosize=1;strokeColor=none;fillColor=none;" vertex="1" parent="WIyWlLk6GJQsqaUBKTNV-1">
          <mxGeometry x="250" y="780" width="120" height="40" as="geometry" />
        </mxCell>
        <mxCell id="0oKWe1tTrNoSyfwkLrH9-11" value="&lt;font style=&quot;font-size: 22px;&quot;&gt;r6.parquet&lt;/font&gt;" style="text;html=1;align=center;verticalAlign=middle;resizable=0;points=[];autosize=1;strokeColor=none;fillColor=none;" vertex="1" parent="WIyWlLk6GJQsqaUBKTNV-1">
          <mxGeometry x="250" y="820" width="120" height="40" as="geometry" />
        </mxCell>
        <mxCell id="0oKWe1tTrNoSyfwkLrH9-12" value="&lt;font style=&quot;font-size: 22px;&quot;&gt;r10.parquet&lt;/font&gt;" style="text;html=1;align=center;verticalAlign=middle;resizable=0;points=[];autosize=1;strokeColor=none;fillColor=none;" vertex="1" parent="WIyWlLk6GJQsqaUBKTNV-1">
          <mxGeometry x="240" y="860" width="140" height="40" as="geometry" />
        </mxCell>
        <mxCell id="0oKWe1tTrNoSyfwkLrH9-13" value="&lt;font style=&quot;font-size: 22px;&quot;&gt;world.parquet&lt;/font&gt;" style="text;html=1;align=center;verticalAlign=middle;resizable=0;points=[];autosize=1;strokeColor=none;fillColor=none;" vertex="1" parent="WIyWlLk6GJQsqaUBKTNV-1">
          <mxGeometry x="225" y="900" width="160" height="40" as="geometry" />
        </mxCell>
        <mxCell id="0oKWe1tTrNoSyfwkLrH9-14" value="EV" style="rounded=0;whiteSpace=wrap;html=1;fillColor=#dae8fc;strokeColor=#6c8ebf;fontSize=21;" vertex="1" parent="WIyWlLk6GJQsqaUBKTNV-1">
          <mxGeometry x="620" y="780" width="120" height="30" as="geometry" />
        </mxCell>
        <mxCell id="0oKWe1tTrNoSyfwkLrH9-15" value="&lt;font style=&quot;font-size: 22px;&quot;&gt;gdp.parquet&lt;/font&gt;" style="text;html=1;align=center;verticalAlign=middle;resizable=0;points=[];autosize=1;strokeColor=none;fillColor=none;" vertex="1" parent="WIyWlLk6GJQsqaUBKTNV-1">
          <mxGeometry x="610" y="820" width="140" height="40" as="geometry" />
        </mxCell>
        <mxCell id="0oKWe1tTrNoSyfwkLrH9-16" value="&lt;font style=&quot;font-size: 22px;&quot;&gt;population.parquet&lt;/font&gt;" style="text;html=1;align=center;verticalAlign=middle;resizable=0;points=[];autosize=1;strokeColor=none;fillColor=none;" vertex="1" parent="WIyWlLk6GJQsqaUBKTNV-1">
          <mxGeometry x="575" y="850" width="210" height="40" as="geometry" />
        </mxCell>
        <mxCell id="0oKWe1tTrNoSyfwkLrH9-20" value="&lt;font style=&quot;font-size: 24px;&quot;&gt;csv2parquet.py&lt;/font&gt;" style="rounded=1;whiteSpace=wrap;html=1;" vertex="1" parent="WIyWlLk6GJQsqaUBKTNV-1">
          <mxGeometry x="190" y="350" width="200" height="70" as="geometry" />
        </mxCell>
        <mxCell id="0oKWe1tTrNoSyfwkLrH9-21" value="&lt;font style=&quot;font-size: 24px;&quot;&gt;task_ev.py&lt;/font&gt;" style="rounded=1;whiteSpace=wrap;html=1;" vertex="1" parent="WIyWlLk6GJQsqaUBKTNV-1">
          <mxGeometry x="600" y="350" width="200" height="70" as="geometry" />
        </mxCell>
        <mxCell id="0oKWe1tTrNoSyfwkLrH9-22" value="" style="endArrow=classic;html=1;rounded=0;entryX=0.5;entryY=0;entryDx=0;entryDy=0;" edge="1" parent="WIyWlLk6GJQsqaUBKTNV-1" source="0oKWe1tTrNoSyfwkLrH9-9" target="0oKWe1tTrNoSyfwkLrH9-20">
          <mxGeometry width="50" height="50" relative="1" as="geometry">
            <mxPoint x="730" y="630" as="sourcePoint" />
            <mxPoint x="460" y="470" as="targetPoint" />
          </mxGeometry>
        </mxCell>
        <mxCell id="0oKWe1tTrNoSyfwkLrH9-23" value="" style="endArrow=classic;html=1;rounded=0;exitX=0.5;exitY=1;exitDx=0;exitDy=0;entryX=0.5;entryY=0;entryDx=0;entryDy=0;" edge="1" parent="WIyWlLk6GJQsqaUBKTNV-1" source="0oKWe1tTrNoSyfwkLrH9-20" target="0oKWe1tTrNoSyfwkLrH9-17">
          <mxGeometry width="50" height="50" relative="1" as="geometry">
            <mxPoint x="730" y="630" as="sourcePoint" />
            <mxPoint x="460" y="560" as="targetPoint" />
          </mxGeometry>
        </mxCell>
        <mxCell id="0oKWe1tTrNoSyfwkLrH9-24" value="" style="endArrow=classic;html=1;rounded=0;entryX=-0.019;entryY=0.007;entryDx=0;entryDy=0;entryPerimeter=0;" edge="1" parent="WIyWlLk6GJQsqaUBKTNV-1" source="0oKWe1tTrNoSyfwkLrH9-12" target="0oKWe1tTrNoSyfwkLrH9-16">
          <mxGeometry width="50" height="50" relative="1" as="geometry">
            <mxPoint x="300" y="430" as="sourcePoint" />
            <mxPoint x="330" y="730" as="targetPoint" />
          </mxGeometry>
        </mxCell>
        <mxCell id="0oKWe1tTrNoSyfwkLrH9-26" value="" style="endArrow=classic;html=1;rounded=0;exitX=0.5;exitY=1;exitDx=0;exitDy=0;" edge="1" parent="WIyWlLk6GJQsqaUBKTNV-1" source="0oKWe1tTrNoSyfwkLrH9-21">
          <mxGeometry width="50" height="50" relative="1" as="geometry">
            <mxPoint x="300" y="430" as="sourcePoint" />
            <mxPoint x="500" y="860" as="targetPoint" />
          </mxGeometry>
        </mxCell>
      </root>
    </mxGraphModel>
  </diagram>
</mxfile>
